<?xml version="1.0" standalone="no"?>
<!DOCTYPE svg PUBLIC "-//W3C//DTD SVG 20010904//EN"
 "http://www.w3.org/TR/2001/REC-SVG-20010904/DTD/svg10.dtd">
<svg version="1.0" xmlns="http://www.w3.org/2000/svg"
 width="700.000000pt" height="700.000000pt" viewBox="0 0 700.000000 700.000000"
 preserveAspectRatio="xMidYMid meet">
<metadata>
Created by potrace 1.11, written by Peter Selinger 2001-2013
</metadata>
<g transform="translate(0.000000,700.000000) scale(0.100000,-0.100000)"
fill="#000000" stroke="none">
<path d="M1275 6989 c-322 -36 -616 -179 -850 -414 -213 -212 -345 -465 -403
-768 -16 -86 -17 -242 -17 -2307 0 -2071 1 -2221 18 -2308 114 -605 564 -1055
1170 -1170 86 -16 242 -17 2307 -17 2065 0 2221 1 2307 17 607 115 1056 564
1171 1171 16 86 17 242 17 2307 0 2065 -1 2221 -17 2307 -57 300 -190 555
-398 764 -241 243 -532 382 -872 419 -121 13 -4316 12 -4433 -1z m4195 -1304
l0 -165 -425 -2 -425 -3 173 -110 c190 -122 237 -159 272 -219 48 -83 52 -214
9 -298 -15 -30 -320 -517 -418 -668 -47 -72 -1363 -2148 -1460 -2303 l-61 -98
-528 -264 c-414 -208 -536 -265 -566 -265 -45 0 -99 17 -123 38 -25 21 -22 6
7 -44 29 -49 108 -94 166 -94 28 0 111 37 329 145 l292 145 1379 0 1379 0 0
-165 0 -165 -1970 0 -1970 0 0 165 0 165 149 0 149 0 6 38 c3 20 8 191 12 379
l6 343 -161 0 -161 0 0 165 0 165 165 0 c165 0 165 0 165 23 0 22 32 75 303
502 l147 230 -335 3 -335 2 0 170 0 170 444 0 444 0 240 378 240 377 -739 3
-739 2 0 165 0 165 845 0 845 0 56 88 c30 48 138 218 239 377 l185 290 -975 3
-975 2 0 165 0 165 1860 0 1860 0 0 -165z m0 -1090 l0 -165 -281 0 -280 0 23
38 c13 21 59 95 103 165 l80 127 178 0 177 0 0 -165z m-5 -1095 l0 -165 -624
-3 c-586 -2 -623 -1 -617 15 9 22 174 282 194 306 14 16 49 17 531 15 l516 -3
0 -165z m5 -1095 l0 -165 -976 0 -976 0 21 33 c11 17 58 91 103 164 l83 132
873 1 872 0 0 -165z"/>
<path d="M2189 2317 c0 -40 -4 -191 -8 -337 -5 -146 -7 -266 -6 -268 4 -5 595
292 595 300 0 3 -28 24 -62 46 -35 21 -165 105 -290 185 l-228 146 -1 -72z"/>
</g>
</svg>
