<?xml version="1.0" encoding="UTF-8"?>
<svg width="16mm" height="16mm" version="1.1" viewBox="0 0 16 16">
<path d="m13.039 11.989c-1.3869 1.765-3.5324 2.7733-5.7663 2.7102-0.55162-0.015582-1.4394-0.16839-1.9643-0.3385-2.1189-0.68665-3.7808-2.3485-4.4675-4.4675-0.17012-0.52496-0.32292-1.4127-0.33851-1.9643-0.063116-2.2339 0.94521-4.3794 2.7102-5.7663 0.43392-0.34097 0.75014-0.11907 0.69544 0.43038-0.0756 0.75942-0.12995 1.8441 0.014079 2.8487 0.078211 0.54555 0.35565 1.4027 0.59994 1.8975 0.73514 1.4891 2.0056 2.8298 3.4875 3.5319 0.49843 0.23615 1.3722 0.46278 1.9218 0.50913 0.92511 0.07801 1.9485 0.0031 2.6787-0.07956 0.54839-0.06205 0.76989 0.25444 0.42894 0.68834z"/>
<path transform="matrix(.5942 -.34306 .34306 .5942 4.4868 5.377)" d="m14.525 4.3031-1.4058-0.055377-0.8315 1.1349-0.38175-1.3541-1.3363-0.4401 1.1699-0.78151 0.005623-1.4069 1.1048 0.87112 1.3398-0.4294-0.48708 1.3199z"/>
<path d="m11.687 9.1668-0.84357-0.83434-1.1574 0.26108 0.53282-1.0601-0.60596-1.0201 1.1729 0.17915 0.78289-0.89152 0.19205 1.1708 1.0898 0.46908-1.0542 0.54446z"/>
<path d="m7.5363 6.2747-1.0735-0.89572-1.3465 0.37656 0.52014-1.2978-0.77421-1.1642 1.395 0.09364 0.86798-1.0961 0.34202 1.3557 1.3107 0.48679-1.1836 0.7442z"/>
</svg>
